<?xml version="1.0" encoding="utf-8"?>
<!-- Generator: Adobe Illustrator 23.0.1, SVG Export Plug-In . SVG Version: 6.00 Build 0)  -->
<svg version="1.1" id="Шар_1" xmlns="http://www.w3.org/2000/svg" xmlns:xlink="http://www.w3.org/1999/xlink" x="0px" y="0px"
	 viewBox="0 0 21 24" style="enable-background:new 0 0 21 24;" xml:space="preserve">
<path d="M12.3,23.7c-0.2,0-0.4-0.1-0.5-0.2L1.1,16.9c-0.5-0.3-0.6-0.9-0.3-1.4L9.6,1.1c0.1-0.2,0.4-0.4,0.6-0.5
	c0.3-0.1,0.5,0,0.8,0.1l5.3,3.3l0,0c0,0,0,0,0,0l1.9,1.2c0.5,0.3,0.6,0.9,0.3,1.4c-1,1.7-0.8,2.2,1.4,3.6c0.5,0.3,0.6,0.9,0.3,1.4
	l-1.2,2c0,0,0,0,0,0c0,0,0,0,0,0l-2.9,4.8c0,0,0,0,0,0l-2.9,4.8c-0.1,0.2-0.4,0.4-0.6,0.5C12.4,23.7,12.4,23.7,12.3,23.7z M8.3,19.1
	l3.6,2.3l1.9-3.1L10.2,16L8.3,19.1z M3,15.8L6.6,18l1.9-3.1l-3.6-2.3L3,15.8z M11.3,14.3l3.6,2.3l1.9-3.1l-3.6-2.3L11.3,14.3z
	 M6,10.9l3.6,2.3l1.9-3.1L7.8,7.8L6,10.9z M14.2,9.4l3.6,2.3l0.2-0.3c-1.5-1.1-2.7-2.5-1.7-4.9l-0.3-0.2L14.2,9.4z M8.9,6.1l3.6,2.3
	l1.9-3.1L10.8,3L8.9,6.1z"/>
</svg>
