<?xml version="1.0" encoding="utf-8"?>
<!-- Generator: Adobe Illustrator 23.0.1, SVG Export Plug-In . SVG Version: 6.00 Build 0)  -->
<svg version="1.1" id="Шар_1" xmlns="http://www.w3.org/2000/svg" xmlns:xlink="http://www.w3.org/1999/xlink" x="0px" y="0px"
	 viewBox="0 0 28 28" style="enable-background:new 0 0 28 28;" xml:space="preserve">
<path d="M11.8,0.4l7.5,7.5l0.1-0.1c0.2-0.2,0.4-0.2,0.6-0.2s0.4,0.1,0.6,0.2l0,0l0.9,0.9c0.3,0.3,0.3,0.8,0.1,1.1l0,0L21.4,10
	l6.2,6.2c0.5,0.5,0.5,1.4,0,2l-9.4,9.4c-0.5,0.5-1.4,0.5-2,0l-4.4-4.4c-0.1,0.1-0.2,0.2-0.3,0.2c-0.1,0.1-0.2,0.1-0.3,0.1
	c-0.1,0-0.2,0-0.3-0.1c-0.1,0-0.2-0.1-0.3-0.2l-2.6-2.6c-0.2-0.2-0.2-0.4-0.2-0.6s0.1-0.4,0.2-0.6l0,0l0.1-0.1l-7.5-7.5
	c-0.6-0.6-0.6-1.4,0-2l9.4-9.4C10.4-0.1,11.3-0.1,11.8,0.4L11.8,0.4z M18.4,8.9l-1.8-1.8C16.6,7.1,16.5,7,16.5,7c-0.1,0-0.2,0-0.2,0
	S16.1,7,16,7c-0.1,0-0.1,0.1-0.2,0.1l-3.6,3.6c-0.1,0.1-0.1,0.1-0.1,0.2c0,0.1,0,0.2,0,0.2c0,0.1,0,0.2,0,0.2c0,0.1,0.1,0.1,0.1,0.2
	l1.7,1.7l0.6-0.6L13,11.2l3.2-3.2l1.6,1.6L18.4,8.9z M13.3,14l-1.8-1.8c-0.1-0.1-0.1-0.1-0.2-0.1c-0.1,0-0.2,0-0.2,0s-0.2,0-0.2,0
	c-0.1,0-0.1,0.1-0.2,0.1l-3.6,3.6l0,0l0,0c-0.2,0.2-0.2,0.6,0,0.9l1.8,1.8l0.6-0.6l-1.6-1.6l3.2-3.2l1.6,1.6L13.3,14z M6.8,6.2
	l3.6,3.6c0.2,0.2,0.6,0.2,0.8,0l3.6-3.6C14.9,6.1,14.9,6.1,15,6c0-0.1,0-0.1,0-0.2h0c0-0.2-0.1-0.3-0.2-0.4l-3.6-3.6
	c-0.1-0.1-0.1-0.1-0.2-0.1c-0.1,0-0.2,0-0.2,0c-0.1,0-0.2,0-0.2,0c-0.1,0-0.1,0.1-0.2,0.1L6.8,5.3C6.6,5.6,6.6,6,6.8,6.2z M1.8,11.3
	l3.6,3.6c0.2,0.2,0.6,0.2,0.8,0l3.6-3.6c0.1-0.1,0.1-0.1,0.1-0.2s0-0.2,0-0.2h0c0-0.2-0.1-0.3-0.2-0.4L6.2,6.8
	C6.1,6.8,6.1,6.7,6,6.7c-0.1,0-0.2,0-0.2,0s-0.2,0-0.2,0S5.4,6.8,5.3,6.8l-3.6,3.6C1.5,10.6,1.5,11,1.8,11.3z M8.7,20l2.4,2.4
	l9.6-13L20,8.7L8.7,20z"/>
</svg>
