<?xml version="1.0" encoding="utf-8"?>
<!-- Generator: Adobe Illustrator 23.0.1, SVG Export Plug-In . SVG Version: 6.00 Build 0)  -->
<svg version="1.1" id="Шар_1" xmlns="http://www.w3.org/2000/svg" xmlns:xlink="http://www.w3.org/1999/xlink" x="0px" y="0px"
	 viewBox="0 0 22 22" style="enable-background:new 0 0 22 22;" xml:space="preserve">
<path id="Vector" d="M11.7,12.3c-0.1,0.1-0.2,0.2-0.3,0.2c-0.1,0-0.2,0.1-0.4,0.1s-0.2,0-0.4-0.1c-0.1,0-0.2-0.1-0.3-0.2L6.2,8.1
	C6.1,8,6,7.9,5.9,7.9c-0.1,0-0.2-0.1-0.4-0.1c-0.1,0-0.2,0-0.4,0.1C5,7.9,4.9,8,4.8,8.1C4.7,8.2,4.6,8.5,4.6,8.7s0.1,0.5,0.3,0.6
	l4.2,4.2c0.5,0.5,1.2,0.8,1.9,0.8c0.7,0,1.4-0.3,1.9-0.8l4.2-4.2c0.2-0.2,0.3-0.4,0.3-0.6c0-0.1,0-0.2-0.1-0.4
	c0-0.1-0.1-0.2-0.2-0.3C17.1,8,17,7.9,16.9,7.9c-0.1,0-0.2-0.1-0.4-0.1s-0.2,0-0.4,0.1c-0.1,0-0.2,0.1-0.3,0.2L11.7,12.3z"/>
</svg>
