<?xml version="1.0" encoding="utf-8"?>
<!-- Generator: Adobe Illustrator 23.0.1, SVG Export Plug-In . SVG Version: 6.00 Build 0)  -->
<svg version="1.1" id="Шар_1" xmlns="http://www.w3.org/2000/svg" xmlns:xlink="http://www.w3.org/1999/xlink" x="0px" y="0px"
	 viewBox="0 0 24 24" style="enable-background:new 0 0 24 24;" xml:space="preserve">
<path d="M14,22.8h-4c-0.4,0-0.8-0.3-0.8-0.8v-7.3H7c-0.4,0-0.8-0.3-0.8-0.8v-4c0-0.4,0.3-0.8,0.8-0.8h2.3V7c0-1.5,0.6-3,1.7-4.1
	C12,1.8,13.5,1.3,15,1.3h3c0.4,0,0.8,0.3,0.8,0.8v4c0,0.4-0.3,0.8-0.8,0.8h-3c-0.1,0-0.1,0-0.2,0.1c0,0-0.1,0.1-0.1,0.2v2.3H18
	c0.2,0,0.4,0.1,0.6,0.3c0.1,0.2,0.2,0.4,0.1,0.6l-1,4c-0.1,0.3-0.4,0.6-0.7,0.6h-2.3V22C14.8,22.4,14.4,22.8,14,22.8z M10.8,21.3
	h2.5V14c0-0.4,0.3-0.8,0.8-0.8h2.4l0.6-2.5h-3c-0.4,0-0.8-0.3-0.8-0.8V7c0-0.5,0.2-0.9,0.5-1.2c0.3-0.3,0.8-0.5,1.2-0.5h2.3V2.8H15
	c-1.1,0-2.2,0.4-3,1.2c-0.8,0.8-1.2,1.9-1.2,3v3c0,0.4-0.3,0.8-0.8,0.8H7.8v2.5H10c0.4,0,0.8,0.3,0.8,0.8V21.3z"/>
</svg>
