<svg xmlns="http://www.w3.org/2000/svg" aria-hidden="true" style="position:absolute;width:0;height:0;overflow:hidden">
  <defs>
    <symbol id="icon-chocolate" viewBox="0 0 32 32">
      <path d="M18.4 31.6c-.267 0-.533-.133-.667-.267l-14.267-8.8c-.667-.4-.8-1.2-.4-1.867l11.733-19.2c.133-.267.533-.533.8-.667.4-.133.667 0 1.067.133l7.067 4.4 2.533 1.6c.667.4.8 1.2.4 1.867-1.333 2.267-1.067 2.933 1.867 4.8.667.4.8 1.2.4 1.867l-1.6 2.667-3.867 6.4-3.867 6.4c-.133.267-.533.533-.8.667h-.4zm-5.333-6.133 4.8 3.067 2.533-4.133-4.8-3.067-2.533 4.133zM6 21.067 10.8 24l2.533-4.133-4.8-3.067L6 21.067zm11.067-2 4.8 3.067 2.533-4.133-4.8-3.067-2.533 4.133zM10 14.533l4.8 3.067 2.533-4.133L12.4 10.4 10 14.533zm10.933-2 4.8 3.067.267-.4c-2-1.467-3.6-3.333-2.267-6.533l-.4-.267-2.4 4.133zm-7.066-4.4 4.8 3.067L21.2 7.067 16.4 4l-2.533 4.133z"/>
    </symbol>
    <symbol id="icon-chocolate-two" viewBox="0 0 32 32">
      <path d="m13.486.457 8.571 8.571.114-.114c.229-.229.457-.229.686-.229s.457.114.686.229l1.029 1.029c.343.343.343.914.114 1.257l-.229.229 7.086 7.086c.571.571.571 1.6 0 2.286L20.8 31.544c-.571.571-1.6.571-2.286 0l-5.029-5.029c-.114.114-.229.229-.343.229-.114.114-.229.114-.343.114s-.229 0-.343-.114c-.114 0-.229-.114-.343-.229l-2.971-2.971c-.229-.229-.229-.457-.229-.686s.114-.457.229-.686l.114-.114-8.571-8.571c-.686-.686-.686-1.6 0-2.286L11.428.458c.457-.571 1.486-.571 2.057 0zm7.543 9.714-2.057-2.057L18.858 8H18.286c-.114 0-.114.114-.229.114l-4.114 4.114c-.114.114-.114.114-.114.229v.458s.114.114.114.229l1.943 1.943.686-.686-1.714-1.6 3.657-3.657 1.829 1.829.686-.8zM15.2 16l-2.057-2.057c-.114-.114-.114-.114-.229-.114h-.458s-.114.114-.229.114l-4.114 4.114c-.229.229-.229.686 0 1.029l2.057 2.057.686-.686-1.829-1.829 3.657-3.657 1.829 1.829.686-.8zM7.771 7.086l4.114 4.114c.229.229.686.229.914 0l4.114-4.114.229-.229v-.229c0-.229-.114-.343-.229-.457l-4.114-4.114c-.114-.114-.114-.114-.229-.114h-.458s-.114.114-.229.114l-4.114 4c-.229.343-.229.8 0 1.029zm-5.714 5.828 4.114 4.114c.229.229.686.229.914 0l4.114-4.114c.114-.114.114-.114.114-.229v-.229c0-.229-.114-.343-.229-.457l-4-4.229c-.114 0-.114-.114-.229-.114h-.458s-.229.114-.343.114L1.94 11.884c-.229.229-.229.686.114 1.029zm7.886 9.943 2.743 2.743 10.971-14.857-.8-.8L9.943 22.857z"/>
    </symbol>
    <symbol id="icon-corner" viewBox="0 0 32 32">
      <path d="M17.018 17.891c-.145.145-.291.291-.436.291s-.291.145-.582.145-.291 0-.582-.145c-.145 0-.291-.145-.436-.291l-5.964-6.109c-.145-.145-.291-.291-.436-.291s-.291-.145-.582-.145c-.145 0-.291 0-.582.145-.145 0-.291.145-.436.291s-.291.582-.291.873.145.727.436.873l6.109 6.109c.727.727 1.745 1.164 2.764 1.164s2.036-.436 2.764-1.164l6.109-6.109c.291-.291.436-.582.436-.873 0-.145 0-.291-.145-.582 0-.145-.145-.291-.291-.436 0 0-.145-.145-.291-.145s-.291-.145-.582-.145-.291 0-.582.145c-.145 0-.291.145-.436.291l-5.964 6.109z"/>
    </symbol>
    <symbol id="icon-facebook" viewBox="0 0 32 32">
      <path d="M18.667 30.4h-5.333c-.533 0-1.067-.4-1.067-1.067V19.6H9.334c-.533 0-1.067-.4-1.067-1.067V13.2c0-.533.4-1.067 1.067-1.067h3.067v-2.8c0-2 .8-4 2.267-5.467 1.333-1.467 3.333-2.133 5.333-2.133h4c.533 0 1.067.4 1.067 1.067v5.333c0 .533-.4 1.067-1.067 1.067h-4c-.133 0-.133 0-.267.133 0 0-.133.133-.133.267v3.067h4.4c.267 0 .533.133.8.4.133.267.267.533.133.8L23.601 19.2c-.133.4-.533.8-.933.8h-3.067v9.333c.133.533-.4 1.067-.933 1.067zm-4.267-2h3.333v-9.733c0-.533.4-1.067 1.067-1.067H22l.8-3.333h-4c-.533 0-1.067-.4-1.067-1.067V9.333c0-.667.267-1.2.667-1.6s1.067-.667 1.6-.667h3.067V3.733H20c-1.467 0-2.933.533-4 1.6s-1.6 2.533-1.6 4v4c0 .533-.4 1.067-1.067 1.067H10.4v3.333h2.933c.533 0 1.067.4 1.067 1.067v9.6z"/>
    </symbol>
    <symbol id="icon-instagram" viewBox="0 0 32 32">
      <path d="M22.667 30.4H9.334a7.739 7.739 0 0 1-7.733-7.733V9.334a7.739 7.739 0 0 1 7.733-7.733h13.333A7.739 7.739 0 0 1 30.4 9.334v13.333a7.739 7.739 0 0 1-7.733 7.733zM9.333 3.733c-3.067 0-5.6 2.533-5.6 5.6v13.333c0 3.067 2.533 5.733 5.733 5.733h13.333c3.067 0 5.733-2.533 5.733-5.733V9.333c0-3.067-2.533-5.733-5.733-5.733H9.332z"/>
      <path d="M16 22.267c-.4 0-.667 0-1.067-.133-1.333-.267-2.533-.8-3.467-1.733s-1.6-2.133-1.733-3.467c-.267-1.333 0-2.667.533-3.867.8-1.2 1.733-2.133 2.933-2.8s2.533-.8 3.867-.667c1.333.133 2.533.8 3.6 1.733.933.933 1.6 2.267 1.733 3.6.133 1.333 0 2.667-.667 3.867s-1.6 2.133-2.8 2.8c-.933.4-1.867.667-2.933.667zM16 11.6c-.667 0-1.333.133-2 .533-.8.4-1.467 1.067-1.867 1.867s-.533 1.733-.4 2.667c.133.933.533 1.733 1.2 2.4s1.467 1.067 2.4 1.2c.933.133 1.867 0 2.667-.4S19.467 18.8 19.867 18c.4-.8.533-1.733.4-2.667-.133-.933-.533-1.733-1.2-2.4s-1.467-1.067-2.4-1.2c-.133-.133-.4-.133-.667-.133zM23.333 9.733c-.533 0-1.067-.4-1.067-1.067s.4-1.067.933-1.067 1.067.4 1.067 1.067-.4 1.067-.933 1.067z"/>
    </symbol>
    <symbol id="icon-price" viewBox="0 0 32 32">
      <path d="M16 .8C7.657.8.8 7.657.8 16S7.657 31.2 16 31.2 31.2 24.343 31.2 16 24.343.8 16 .8zm0 27.429C9.257 28.229 3.771 22.743 3.771 16S9.257 3.771 16 3.771c6.743 0 12.229 5.486 12.229 12.229S22.743 28.229 16 28.229z"/>
      <path d="M17.943 14.514h-4c-.8 0-1.371-.571-1.371-1.371s.571-1.371 1.371-1.371h5.6c.914 0 1.486-.571 1.486-1.486s-.457-1.6-1.371-1.6h-2.171V7.315c0-.914-.571-1.486-1.486-1.486s-1.486.571-1.486 1.486v1.371h-.457c-2.4 0-4.457 1.943-4.457 4.457 0 2.4 1.943 4.457 4.457 4.457h3.771c.8 0 1.371.571 1.371 1.371s-.571 1.371-1.371 1.371h-5.6c-.914 0-1.486.571-1.486 1.486s.571 1.486 1.486 1.486h2.286v1.371c0 .914.571 1.486 1.486 1.486s1.486-.571 1.486-1.486v-1.371h.457c2.4 0 4.457-1.943 4.457-4.457 0-2.4-1.943-4.343-4.457-4.343z"/>
    </symbol>
    <symbol id="icon-spoon" viewBox="0 0 32 32">
      <path d="M15.429 13.829c-.914-1.029-1.371-2.4-1.371-3.771 0-4.914 5.943-9.829 11.886-9.829a5.903 5.903 0 0 1 5.943 5.943c0 5.943-4.914 11.886-9.829 11.886-1.371 0-2.629-.457-3.771-1.371L3.544 31.201c-.8.8-2.057.8-2.743 0-.8-.8-.8-2.057 0-2.743L15.43 13.829z"/>
    </symbol>
    <symbol id="icon-triangle" viewBox="0 0 32 32">
      <path d="M.762 32V0l30.476 16L.762 32z"/>
    </symbol>
    <symbol id="icon-twitter" viewBox="0 0 32 32">
      <path d="M11.067 28.933C7.6 28.933 4.134 28 .934 26.266c-.4-.267-.667-.667-.533-1.2.133-.4.533-.8 1.067-.667 2.533.133 5.067-.4 7.2-1.6-10.667-6.133-6.267-18.667-6.267-18.8.133-.4.4-.667.8-.667s.8.133.933.4c1.333 1.867 3.6 4.267 5.6 5.2 1.6.8 3.467 1.333 5.333 1.333v-.267c0-1.467.4-2.8 1.2-4s2-2.133 3.333-2.533c1.333-.533 2.8-.533 4.133-.267 1.2.267 2.267.933 3.067 1.733 1.2-.4 2.267-.933 3.333-1.733.4-.267.8-.267 1.2 0s.533.667.4 1.067a9.947 9.947 0 0 1-2.667 4.933v.8c0 7.2-3.2 13.2-8.667 16.4-2.933 1.733-6.133 2.533-9.333 2.533zM5.333 26c4.8 1.6 9.733 1.2 14-1.333C24.266 21.734 27.066 16.4 27.066 10c0-.267 0-.667-.133-.933 0-.267 0-.667.267-.933.533-.533 1.067-1.2 1.467-1.867-.667.267-1.2.533-1.867.667-.4.133-.8 0-1.067-.267-.667-.8-1.6-1.333-2.533-1.6s-2-.133-2.933.133c-.933.4-1.733 1.067-2.4 1.867-.533.933-.933 2-.8 2.933v1.333c0 .533-.4.933-.933.933-2.533.133-5.067-.533-7.2-1.6-1.867-.8-3.733-2.533-5.2-4.133-.8 3.6-1.2 11.467 7.333 15.2.267.133.533.4.533.8s-.133.667-.4.933c-1.733 1.2-3.733 2.133-5.867 2.533z"/>
    </symbol>
    <symbol id="icon-vector" viewBox="0 0 32 32">
      <path d="M22.933 24.267c-.267 0-.8 0-1.067-.267-.533-.8-.533-1.6 0-2.133l4.533-4.533h-24c-.8 0-1.333-.533-1.333-1.333s.533-1.333 1.333-1.333h24.267l-4.8-4.533c-.533-.533-.533-1.333 0-1.867s1.333-.533 1.867 0l6.933 6.933.267.267v1.066c0 .266-.267.267-.267.267l-6.933 6.933c-.267.267-.533.533-.8.533z"/>
    </symbol>
  </defs>
</svg>
