<?xml version="1.0" encoding="utf-8"?>
<!-- Generator: Adobe Illustrator 23.0.1, SVG Export Plug-In . SVG Version: 6.00 Build 0)  -->
<svg version="1.1" id="Шар_1" xmlns="http://www.w3.org/2000/svg" xmlns:xlink="http://www.w3.org/1999/xlink" x="0px" y="0px"
	 viewBox="0 0 24 24" style="enable-background:new 0 0 24 24;" xml:space="preserve">
<path d="M17,22.8H7c-3.2,0-5.8-2.6-5.8-5.8V7c0-3.2,2.6-5.8,5.8-5.8h10c3.2,0,5.8,2.6,5.8,5.8v10C22.8,20.2,20.2,22.8,17,22.8z
	 M7,2.8C4.7,2.8,2.8,4.7,2.8,7v10c0,2.3,1.9,4.3,4.3,4.3h10c2.3,0,4.3-1.9,4.3-4.3V7c0-2.3-1.9-4.3-4.3-4.3H7z"/>
<path d="M12,16.7c-0.3,0-0.5,0-0.8-0.1c-1-0.2-1.9-0.6-2.6-1.3c-0.7-0.7-1.2-1.6-1.3-2.6c-0.2-1,0-2,0.4-2.9C8.3,8.9,9,8.2,9.9,7.7
	c0.9-0.5,1.9-0.6,2.9-0.5c1,0.1,1.9,0.6,2.7,1.3c0.7,0.7,1.2,1.7,1.3,2.7l0,0c0.1,1,0,2-0.5,2.9c-0.5,0.9-1.2,1.6-2.1,2.1
	C13.5,16.5,12.8,16.7,12,16.7z M12,8.7c-0.5,0-1,0.1-1.5,0.4c-0.6,0.3-1.1,0.8-1.4,1.4c-0.3,0.6-0.4,1.3-0.3,2
	c0.1,0.7,0.4,1.3,0.9,1.8s1.1,0.8,1.8,0.9c0.7,0.1,1.4,0,2-0.3c0.6-0.3,1.1-0.8,1.4-1.4c0.3-0.6,0.4-1.3,0.3-2l0,0
	c-0.1-0.7-0.4-1.3-0.9-1.8c-0.5-0.5-1.1-0.8-1.8-0.9C12.4,8.7,12.2,8.7,12,8.7z"/>
<path d="M17.5,7.3c-0.4,0-0.8-0.3-0.8-0.8s0.3-0.8,0.7-0.8h0c0.4,0,0.8,0.3,0.8,0.8S17.9,7.3,17.5,7.3z"/>
</svg>
