<?xml version="1.0" encoding="utf-8"?>
<!-- Generator: Adobe Illustrator 23.0.1, SVG Export Plug-In . SVG Version: 6.00 Build 0)  -->
<svg version="1.1" id="Шар_1" xmlns="http://www.w3.org/2000/svg" xmlns:xlink="http://www.w3.org/1999/xlink" x="0px" y="0px"
	 viewBox="0 0 28 28" style="enable-background:new 0 0 28 28;" xml:space="preserve">
<path d="M14,0.7C6.7,0.7,0.7,6.7,0.7,14c0,7.3,6,13.3,13.3,13.3c7.3,0,13.3-6,13.3-13.3C27.3,6.7,21.3,0.7,14,0.7z M14,24.7
	C8.1,24.7,3.3,19.9,3.3,14C3.3,8.1,8.1,3.3,14,3.3c5.9,0,10.7,4.8,10.7,10.7C24.7,19.9,19.9,24.7,14,24.7z"/>
<path d="M15.7,12.7h-3.5c-0.7,0-1.2-0.5-1.2-1.2c0-0.7,0.5-1.2,1.2-1.2h4.9c0.8,0,1.3-0.5,1.3-1.3S18,7.6,17.2,7.6h-1.9V6.4
	c0-0.8-0.5-1.3-1.3-1.3s-1.3,0.5-1.3,1.3v1.2h-0.4c-2.1,0-3.9,1.7-3.9,3.9c0,2.1,1.7,3.9,3.9,3.9h3.3c0.7,0,1.2,0.5,1.2,1.2
	s-0.5,1.2-1.2,1.2h-4.9c-0.8,0-1.3,0.5-1.3,1.3s0.5,1.3,1.3,1.3h2v1.2c0,0.8,0.5,1.3,1.3,1.3s1.3-0.5,1.3-1.3v-1.2h0.4
	c2.1,0,3.9-1.7,3.9-3.9C19.6,14.4,17.9,12.7,15.7,12.7z"/>
</svg>
