<?xml version="1.0" encoding="utf-8"?>
<!-- Generator: Adobe Illustrator 23.0.1, SVG Export Plug-In . SVG Version: 6.00 Build 0)  -->
<svg version="1.1" id="Шар_1" xmlns="http://www.w3.org/2000/svg" xmlns:xlink="http://www.w3.org/1999/xlink" x="0px" y="0px"
	 viewBox="0 0 12 8" style="enable-background:new 0 0 12 8;" xml:space="preserve">
<path d="M8.6,7.1c-0.1,0-0.3,0-0.4-0.1C8,6.7,8,6.4,8.2,6.2l1.7-1.7H0.9C0.6,4.5,0.4,4.3,0.4,4s0.2-0.5,0.5-0.5h9.1L8.2,1.8
	C8,1.6,8,1.3,8.2,1.1s0.5-0.2,0.7,0l2.6,2.6c0,0,0,0,0,0c0,0,0,0,0,0v0c0,0,0.1,0.1,0.1,0.1c0,0.1,0,0.1,0,0.2s0,0.1,0,0.2
	c0,0.1-0.1,0.1-0.1,0.1v0c0,0,0,0,0,0c0,0,0,0,0,0L8.9,6.9C8.8,7,8.7,7.1,8.6,7.1z"/>
</svg>
